{"title":"Dragon Ball Z Resurrection F 2015 BRRip x264 AAC-SSN","uid":13417827,"size":1193727041,"categoryP":"video","categoryS":"movies","magnet":"?xt=urn:btih:5c84048bf50561b495d89917161c0ad7afc9cc26&amp;dn=Dragon+Ball+Z+Resurrection+F+2015+BRRip+x264+AAC-SSN&amp;tr=udp%3A%2F%2Ftracker.leechers-paradise.org%3A6969&amp;tr=udp%3A%2F%2Fzer0day.ch%3A1337&amp;tr=udp%3A%2F%2Fopen.demonii.com%3A1337&amp;tr=udp%3A%2F%2Ftracker.coppersurfer.tk%3A6969&amp;tr=udp%3A%2F%2Fexodus.desync.com%3A6969","seeders":1,"leechers":0,"uploader":"somespirit","files":2,"time":1454513793,"description":"IMDB:  http://www.imdb.com/title/tt3819668/\r\n\r\n Source: Dragon.Ball.Z.Resurrection.F.2015.MULTI.1080p.BluRay.x264-WiNTeaM\r\n\r\n Language: Japanese\r\n Subtitles: English (in mkv container)\r\n\r\n\r\n General\r\n Complete name                            : Dragon Ball Z Resurrection F 2015 BRRip x264 AAC-SSN.mkv\r\n Format                                   : Matroska\r\n Format version                           : Version 4 / Version 2\r\n File size                                : 1.11 GiB\r\n Duration                                 : 1h 33mn\r\n Overall bit rate                         : 1 694 Kbps\r\n Encoded date                             : UTC 2016-02-03 08:49:20\r\n Writing application                      : mkvmerge v8.6.1 ('Flying') 64bit\r\n Writing library                          : libebml v1.3.3 + libmatroska v1.4.4\r\n\r\n Video\r\n ID                                       : 1\r\n Format                                   : AVC\r\n Format/Info                              : Advanced Video Codec\r\n Format profile                           :   \r\n Format settings, CABAC                   : Yes\r\n Format settings, ReFrames                : 5 frames\r\n Codec ID                                 : V_MPEG4/ISO/AVC\r\n Duration                                 : 1h 33mn\r\n Bit rate                                 : 1 362 Kbps\r\n Width                                    : 900 pixels\r\n Height                                   : 506 pixels\r\n Display aspect ratio                     : 16:9\r\n Frame rate mode                          : Constant\r\n Frame rate                               : 23.976 (24000/1001) fps\r\n Color space                              : YUV\r\n Chroma subsampling                       : 4:2:0\r\n Bit depth                                : 8 bits\r\n Scan type                                : Progressive\r\n Bits/(Pixel*Frame)                       : 0.150\r\n Stream size                              : 916 MiB (80%)\r\n Writing library                          : x264 core 148 r2665 a01e339\r\n Language                                 : English\r\n Default                                  : Yes\r\n Forced                                   : No\r\n\r\n Audio\r\n ID                                       : 2\r\n Format                                   : AAC\r\n Format/Info                              : Advanced Audio Codec\r\n Format profile                           : LC\r\n Codec ID                                 : A_AAC\r\n Duration                                 : 1h 33mn\r\n Bit rate                                 : 329 Kbps\r\n Channel(s)                               : 6 channels\r\n Channel positions                        : Front: L C R, Side: L R, LFE\r\n Sampling rate                            : 32.0 KHz\r\n Frame rate                               : 31.250 fps (1024 spf)\r\n Compression mode                         : Lossy\r\n Stream size                              : 221 MiB (19%)\r\n Language                                 : Japanese\r\n Default                                  : Yes\r\n Forced                                   : No\r\n\r\n Text\r\n ID                                       : 3\r\n Format                                   : UTF-8\r\n Codec ID                                 : S_TEXT/UTF8\r\n Codec ID/Info                            : UTF-8 Plain Text\r\n Duration                                 : 1h 31mn\r\n Bit rate                                 : 69 bps\r\n Count of elements                        : 1421\r\n Stream size                              : 46.9 KiB (0%)\r\n Language                                 : English\r\n Default                                  : Yes\r\n Forced                                   : No\r\n\r\n \nhttp://lookpic.com/O/i2/765/Jj8z62Ep.png\r\n \nhttp://lookpic.com/O/i2/651/PkxjEOyB.png\r\n \nhttp://lookpic.com/O/i2/160/5taduDpN.png","torrent":{"xt":"urn:btih:5c84048bf50561b495d89917161c0ad7afc9cc26","amp;dn":"Dragon+Ball+Z+Resurrection+F+2015+BRRip+x264+AAC-SSN","amp;tr":["udp%3A%2F%2Ftracker.leechers-paradise.org%3A6969","udp%3A%2F%2Fzer0day.ch%3A1337","udp%3A%2F%2Fopen.demonii.com%3A1337","udp%3A%2F%2Ftracker.coppersurfer.tk%3A6969","udp%3A%2F%2Fexodus.desync.com%3A6969"],"infoHash":"5c84048bf50561b495d89917161c0ad7afc9cc26","infoHashBuffer":{"type":"Buffer","data":[92,132,4,139,245,5,97,180,149,216,153,23,22,28,10,215,175,201,204,38]},"announce":[],"urlList":[]}}